<?xml version="1.0" encoding="UTF-8"?>
<svg width="410" height="404" viewBox="0 0 410 404" fill="none" xmlns="http://www.w3.org/2000/svg">
<path d="M399.641 59.5246L215.643 388.706C211.844 395.472 202.023 395.523 198.154 388.806L10.5817 59.5563C6.38087 52.2962 12.8897 43.5588 20.9291 45.2782L205.223 84.4519C206.398 84.6989 207.612 84.6947 208.785 84.4396L389.119 45.4274C397.125 43.6807 403.663 52.3561 399.5 59.6343L399.641 59.5246Z" fill="url(#paint0_linear)"/>
<path d="M292.965 1.5744L156.541 28.2558C154.44 28.662 152.922 30.4648 152.922 32.6091V330.043C152.922 332.868 155.807 334.834 158.463 333.86L205.556 316.676C206.729 316.243 207.572 315.18 207.572 313.936V227.4C207.572 224.575 210.457 222.609 213.113 223.583L262.088 241.197C263.262 241.63 264.474 241.625 265.646 241.37L301.937 233.499C304.594 232.926 306.478 230.594 306.478 227.861V5.08371C306.478 2.13327 304.002 -0.308267 300.945 0.306962L292.965 1.5744Z" fill="url(#paint1_linear)"/>
<defs>
<linearGradient id="paint0_linear" x1="6.00017" y1="32.9999" x2="235" y2="344" gradientUnits="userSpaceOnUse">
<stop stop-color="#41D1FF"/>
<stop offset="1" stop-color="#BD34FE"/>
</linearGradient>
<linearGradient id="paint1_linear" x1="194.651" y1="8.81818" x2="236.076" y2="292.989" gradientUnits="userSpaceOnUse">
<stop stop-color="#FFEA83"/>
<stop offset="0.0833333" stop-color="#FFDD35"/>
<stop offset="1" stop-color="#FFA800"/>
</linearGradient>
</defs>
</svg>
